<svg width="18" height="21" viewBox="0 0 18 21" fill="none" xmlns="http://www.w3.org/2000/svg">
<path d="M10.6815 0.364258H1.66351V5.96765H2.53904V1.23979H10.3313L16.4892 7.10584V19.9761H2.53904V14.723H12.5785V8.36077H2.53904H1.66351H0V14.723H1.66351V20.8517H17.3647V6.72645L10.6815 0.364258Z" fill="white"/>
<path d="M3.4292 10.6079V12.8796H3.90464V12.1633H4.32971C4.8083 12.1633 5.14048 11.8516 5.14048 11.3856C5.14048 10.918 4.81932 10.6079 4.35332 10.6079H3.4292ZM3.90464 10.9842H4.22738C4.49973 10.9842 4.65716 11.129 4.65716 11.3872C4.65716 11.647 4.49816 11.7918 4.2258 11.7918H3.90464V10.9842Z" fill="#18191D"/>
<path d="M5.51901 10.6079V12.8796H6.38645C7.06813 12.8796 7.46958 12.4562 7.46958 11.7351C7.46958 11.0141 7.06813 10.6079 6.38645 10.6079H5.51901ZM5.99445 10.9999H6.32978C6.74855 10.9999 6.98469 11.2613 6.98469 11.7367C6.98469 12.2279 6.75484 12.4861 6.32978 12.4861H5.99445V10.9999Z" fill="#18191D"/>
<path d="M8.34874 12.8796V11.9854H9.27286V11.6092H8.34874V10.9999H9.36103V10.6079H7.8733V12.8796H8.34874Z" fill="#18191D"/>
</svg>
