<svg width="243" height="21" viewBox="0 0 243 21" fill="none" xmlns="http://www.w3.org/2000/svg">
<path d="M23.0932 7.82358L18.9574 4.78648L17.8727 5.57725L15.7173 4.00971L16.795 3.20495L12.6523 0.167847L11.5606 0.965611L10.4969 0.167847L6.29814 3.20495L7.39681 4.00971L5.24845 5.57725L4.19876 4.78648L0 7.82358L1.08468 8.61435L0 9.41211L4.19876 12.4492L5.24845 11.6584L7.39681 13.226L6.29814 14.0237L10.4969 17.0678L11.5606 16.2631L12.6523 17.0678L16.851 14.0237L15.7523 13.226L17.9077 11.6584L18.9924 12.4492L23.0932 9.41211L22.0085 8.61435L23.0932 7.82358ZM11.5606 10.1889L9.41221 8.61435L11.5606 7.04681L13.7089 8.61435L11.5606 10.1889Z" fill="#B5DEDB"/>
<path d="M43.6183 1.56746L42.9185 3.87678C42.1296 3.52997 41.2915 3.30804 40.4343 3.21898C38.7338 3.04403 37.915 3.79281 37.7401 4.35964C37.5901 4.7542 37.5775 5.18784 37.7045 5.59041C37.8315 5.99297 38.0906 6.34093 38.4399 6.57798C40.7492 8.1875 42.0508 9.08324 42.3377 10.7767C42.7016 12.9111 42.1208 15.8432 38.09 16.515C36.2344 16.8215 34.3296 16.5782 32.6106 15.8152L33.3104 13.338C33.7609 13.6286 34.2449 13.8636 34.752 14.0378C35.7826 14.453 36.9288 14.4803 37.978 14.1147C38.3616 13.9597 38.6952 13.7021 38.9421 13.37C39.1889 13.038 39.3396 12.6443 39.3776 12.2323C39.3875 11.8176 39.3017 11.4062 39.127 11.03C38.9522 10.6538 38.6932 10.3229 38.3699 10.0629C36.6904 8.62837 34.1291 8.33446 34.563 4.66055C34.8779 2.68713 36.5084 0.867672 39.5385 0.797693C40.9398 0.733827 42.3367 0.997387 43.6183 1.56746Z" fill="white"/>
<path d="M50.5248 16.3051H53.247L55.4373 5.19938H52.7221L51.5465 11.1126C50.8957 14.1287 49.3701 14.6116 48.4744 14.4786C48.2831 14.4683 48.0962 14.4175 47.9261 14.3294C47.7559 14.2413 47.6065 14.118 47.4877 13.9678C46.8859 13.156 47.2707 11.3646 47.2707 11.3646L48.4884 5.19238H45.7732L44.4646 11.8264C44.4646 11.8264 44.0517 14.4436 45.1644 15.5703C45.4794 15.9004 45.8619 16.1588 46.2857 16.3279C46.7096 16.4969 47.1649 16.5727 47.6206 16.55C48.9782 16.655 49.9579 15.8082 50.7137 15.3464L50.5248 16.3051Z" fill="white"/>
<path d="M236.817 5.19926H234.102L231.904 16.305H234.619L235.83 10.3917C236.481 7.37562 238.006 6.89276 238.902 7.02572C239.093 7.0352 239.279 7.08576 239.448 7.17394C239.617 7.26211 239.765 7.38582 239.882 7.53657C240.491 8.34833 240.106 10.1398 240.106 10.1398L238.881 16.305H241.603L242.912 9.67094C242.912 9.67094 243.318 7.05371 242.212 5.92704C241.899 5.5971 241.517 5.33876 241.095 5.16967C240.672 5.00059 240.218 4.92475 239.763 4.94733C239.19 4.90789 238.614 4.99529 238.079 5.20333C237.543 5.41136 237.059 5.73492 236.663 6.15098L236.817 5.19926Z" fill="white"/>
<path d="M72.6808 8.43235C72.7782 7.79015 72.6548 7.13389 72.3309 6.5709C72.0603 6.03517 71.6343 5.59358 71.1087 5.30391C70.583 5.01424 69.9822 4.88998 69.3847 4.94739C68.3909 5.04078 67.4548 5.45602 66.7185 6.13004C66.4643 6.39427 66.2303 6.67732 66.0187 6.97678C65.9369 6.52855 65.7363 6.11048 65.4379 5.76614C64.9911 5.30762 64.3903 5.03089 63.7514 4.98937C63.0921 4.90884 62.4232 5.00061 61.81 5.25572C61.1967 5.51083 60.6601 5.92056 60.2524 6.44494L60.4834 5.19931H57.7332L55.6968 16.305H58.412L59.4267 10.7837C59.4267 10.7837 60.0005 7.82353 61.4211 7.24271C61.5991 7.14751 61.7955 7.09194 61.997 7.07979C62.1984 7.06765 62.4001 7.09922 62.5882 7.17234C62.7764 7.24546 62.9464 7.35839 63.0868 7.50341C63.2272 7.64842 63.3345 7.82208 63.4015 8.01248C63.5367 8.52624 63.5367 9.06625 63.4015 9.58001L62.1699 16.305H64.8711L65.9487 10.4408C66.1377 9.60801 66.6485 7.2707 68.2161 7.10275C68.4331 7.0591 68.6574 7.06755 68.8705 7.12741C69.0836 7.18727 69.2795 7.29683 69.4421 7.4471C69.6046 7.59736 69.7292 7.78404 69.8056 7.99181C69.882 8.19958 69.9081 8.42251 69.8816 8.64229C69.8816 9.03417 69.7556 9.83194 69.7556 9.83194L68.58 16.305H71.2952L72.6947 8.70527L72.6808 8.43235Z" fill="white"/>
<path d="M115.228 8.43242C115.325 7.79105 115.205 7.13557 114.885 6.57097C114.614 6.04184 114.192 5.60507 113.673 5.31604C113.153 5.02701 112.559 4.89873 111.967 4.94746C110.973 5.03883 110.036 5.45435 109.301 6.13011C109.046 6.39434 108.813 6.67739 108.601 6.97685C108.51 6.52619 108.299 6.10817 107.992 5.76621C107.545 5.29965 106.943 5.01329 106.299 4.96145C105.639 4.88092 104.97 4.97269 104.357 5.2278C103.744 5.48291 103.207 5.89264 102.8 6.41702L103.031 5.17139H100.315L98.272 16.2771H100.994L102.002 10.7557C102.002 10.7557 102.576 7.79561 103.996 7.21478C104.174 7.11959 104.371 7.06402 104.572 7.05187C104.774 7.03973 104.975 7.0713 105.163 7.14442C105.352 7.21753 105.522 7.33047 105.662 7.47549C105.802 7.6205 105.91 7.79416 105.977 7.98456C106.112 8.49832 106.112 9.03833 105.977 9.55209L104.745 16.2771H107.46L108.468 10.4408C108.65 9.60808 109.168 7.27077 110.735 7.10282C110.952 7.05917 111.177 7.06762 111.39 7.12748C111.603 7.18734 111.799 7.2969 111.961 7.44717C112.124 7.59743 112.248 7.78411 112.325 7.99188C112.401 8.19965 112.427 8.42258 112.401 8.64236C112.401 9.03425 112.275 9.83201 112.275 9.83201L111.085 16.3051H113.8L115.2 8.70534L115.228 8.43242Z" fill="white"/>
<path d="M78.2231 5.19934H75.5009L73.3105 16.3051H76.0257L78.2231 5.19934Z" fill="white"/>
<path d="M76.4806 0.265747H79.1958L78.6639 2.94595H75.9487L76.4806 0.265747Z" fill="white"/>
<path d="M84.7378 16.298C83.7181 16.6937 82.5873 16.6937 81.5677 16.298C79.6153 15.5982 80.1681 13.0089 80.1681 13.0089L81.2808 7.16568H79.2444L79.6363 5.18526H81.6797L82.1415 2.85495L85.0667 1.85425L84.3669 5.18526H86.6902L86.3263 7.16568H83.975L82.8553 12.834C82.6664 13.6318 82.9253 14.3525 83.5551 14.4785C84.0947 14.5374 84.6402 14.4529 85.1366 14.2336L84.7378 16.298Z" fill="white"/>
<path d="M219.742 5.19934H217.027L214.829 16.3051H217.545L219.742 5.19934Z" fill="white"/>
<path d="M217.999 0.265747H220.714L220.19 2.94595H217.474L217.999 0.265747Z" fill="white"/>
<path d="M213.08 16.298C212.061 16.6938 210.93 16.6938 209.91 16.298C207.958 15.5982 208.511 13.009 208.511 13.009L209.623 7.16572H207.587L207.979 5.1853H210.022L210.484 2.85499L213.437 1.86829L212.737 5.1993H215.061L214.669 7.16572H212.345L211.226 12.834C211.037 13.6318 211.296 14.3526 211.926 14.4786C212.465 14.5374 213.011 14.4529 213.507 14.2336L213.08 16.298Z" fill="white"/>
<path d="M143.863 16.263C143.08 16.4029 139.84 17.0258 138.048 16.179C135.291 14.8844 134.192 12.827 134.29 8.99913C134.285 7.72071 134.571 6.45791 135.128 5.30702C135.685 4.15613 136.497 3.14753 137.502 2.3581C141.491 -0.343099 146.6 1.71429 146.6 1.71429L145.9 3.98862C144.592 3.16783 143.012 2.89625 141.505 3.23284C139.455 3.62473 137.824 5.26224 137.306 7.95644C136.9 10.0978 137.481 13.1139 139.56 14.0097C140.33 14.313 141.161 14.4306 141.985 14.3527C142.81 14.2749 143.604 14.004 144.304 13.5618L143.863 16.263Z" fill="white"/>
<path d="M161.001 11.1545C161.057 10.9935 161.197 10.4547 161.267 10.2447C162.59 6.50785 165.186 7.85845 165.186 7.85845L165.795 5.15725C165.795 5.15725 165.165 4.52744 163.584 5.22723C162.795 5.67648 162.144 6.33214 161.701 7.12367L162.086 5.19924H159.371L157.348 16.305H160.064L161.001 11.1545Z" fill="white"/>
<path d="M192.821 11.1545C192.884 10.9935 193.024 10.4547 193.087 10.2447C194.409 6.50785 197.013 7.85845 197.013 7.85845L197.621 5.15725C197.621 5.15725 196.992 4.52744 195.41 5.22723C194.62 5.67603 193.967 6.33165 193.521 7.12367L193.913 5.19924H191.19L189.168 16.305H191.89L192.821 11.1545Z" fill="white"/>
<path d="M92.5544 4.9054C89.4124 4.9054 86.9001 7.31268 86.4802 10.5947C86.0184 14.2546 87.9708 16.6129 91.1059 16.6129C92.6514 16.6264 94.1455 16.0581 95.2915 15.021C96.4375 13.9839 97.1516 12.5538 97.292 11.0146C97.7119 7.36167 95.6895 4.9054 92.5544 4.9054ZM94.4719 11.1545C94.073 13.1699 92.8273 14.6535 91.1478 14.5625C89.5943 14.4576 88.8735 12.6871 89.3004 10.6787C89.7273 8.67028 90.8609 6.9068 92.7994 7.07475C94.1989 7.20072 94.9197 8.98519 94.4719 11.1545Z" fill="white"/>
<path d="M122.73 4.9054C119.595 4.9054 117.075 7.31268 116.663 10.5947C116.201 14.2546 118.146 16.6129 121.288 16.6129C122.833 16.6262 124.326 16.0577 125.471 15.0205C126.616 13.9832 127.329 12.5532 127.467 11.0146C127.887 7.36167 125.865 4.9054 122.73 4.9054ZM124.668 11.1545C124.262 13.1699 123.017 14.6535 121.344 14.5625C119.784 14.4576 119.063 12.6871 119.49 10.6787C119.917 8.67028 121.057 6.9068 122.989 7.07475C124.374 7.20072 125.102 8.98519 124.668 11.1545Z" fill="white"/>
<path d="M151.897 4.9054C148.762 4.9054 146.243 7.31268 145.823 10.5947C145.361 14.2546 147.313 16.6129 150.448 16.6129C151.995 16.6265 153.49 16.0585 154.637 15.0215C155.784 13.9846 156.499 12.5544 156.642 11.0146C157.054 7.36167 155.039 4.9054 151.897 4.9054ZM153.835 11.1545C153.43 13.1699 152.191 14.6535 150.511 14.5625C148.951 14.4576 148.23 12.6871 148.657 10.6787C149.084 8.67028 150.217 6.9068 152.156 7.07475C153.541 7.20072 154.269 8.98519 153.835 11.1545Z" fill="white"/>
<path d="M172.709 4.96134C172.136 4.95395 171.57 5.07598 171.051 5.31834C170.532 5.56069 170.075 5.91709 169.714 6.36092L169.931 5.22726H167.208L164.248 20.9516H166.963L168.132 14.7374C168.31 15.3002 168.668 15.7888 169.151 16.1278C169.634 16.4668 170.216 16.6372 170.805 16.6129C174.36 16.6759 175.984 14.1076 176.404 10.8046C176.824 7.50159 175.718 4.90535 172.709 4.96134ZM173.605 11.1545C173.255 13.1349 172.205 14.5415 170.658 14.4505C169.112 14.3596 168.377 12.841 168.986 10.4267C169.546 8.18038 170.497 7.1097 171.862 7.1307C173.549 7.16569 173.982 9.04813 173.605 11.1545Z" fill="white"/>
<path d="M183.899 4.9054C180.757 4.9054 178.244 7.31268 177.824 10.5947C177.363 14.2546 179.315 16.6129 182.45 16.6129C183.996 16.6264 185.49 16.0581 186.636 15.021C187.782 13.9839 188.496 12.5538 188.636 11.0146C189.056 7.36167 187.034 4.9054 183.899 4.9054ZM185.83 11.1545C185.431 13.1699 184.186 14.6535 182.506 14.5625C180.953 14.4576 180.225 12.6871 180.659 10.6787C181.093 8.67028 182.219 6.9068 184.158 7.07475C185.543 7.20072 186.264 8.98519 185.83 11.1545Z" fill="white"/>
<path d="M204.479 5.06626C202.282 4.22651 198.986 5.49314 198.986 5.49314L198.636 7.6345C199.814 7.12096 201.081 6.84282 202.366 6.81574C204.878 6.9557 204.046 9.46096 204.046 9.46096C202.484 9.29447 200.904 9.42748 199.392 9.85284C197.901 10.4337 196.593 11.3574 196.593 13.3518C196.593 14.8284 197.363 16.5149 200.022 16.4309C200.686 16.3609 201.327 16.143 201.896 15.793C202.465 15.443 202.948 14.9699 203.311 14.4085C203.311 14.3525 203.003 16.2769 203.003 16.2769H205.291C205.564 14.6884 206.446 9.72688 206.551 8.84514C206.656 7.9634 206.768 5.955 204.479 5.06626ZM202.541 13.8137C201.673 14.6184 200.155 14.6184 199.546 13.9816C198.937 13.3448 199.245 12.3651 199.966 11.8053C201.365 10.7346 203.752 11.1545 203.752 11.1545C203.707 12.164 203.273 13.1169 202.541 13.8137Z" fill="white"/>
<path d="M226.446 4.9054C223.304 4.9054 220.792 7.31268 220.379 10.5947C219.91 14.2546 221.862 16.6129 224.997 16.6129C226.543 16.6264 228.037 16.0581 229.183 15.021C230.329 13.9839 231.043 12.5538 231.184 11.0146C231.631 7.36167 229.581 4.9054 226.446 4.9054ZM228.384 11.1545C227.979 13.1699 226.733 14.6535 225.053 14.5625C223.5 14.4576 222.779 12.6871 223.206 10.6787C223.633 8.67028 224.767 6.9068 226.705 7.07475C228.091 7.20072 228.832 8.98519 228.384 11.1545Z" fill="white"/>
</svg>
