<svg width="16" height="17" viewBox="0 0 16 17" fill="none" xmlns="http://www.w3.org/2000/svg">
<path d="M15.1111 11.3086C14.0044 11.3086 12.9378 11.1308 11.9378 10.802C11.6311 10.7042 11.28 10.7753 11.0356 11.0197L9.08 12.9797C6.56 11.6997 4.50667 9.64195 3.22222 7.1264L5.17778 5.1664C5.42222 4.92195 5.49333 4.57084 5.39556 4.26418C5.06667 3.26418 4.88889 2.19307 4.88889 1.0864C4.88889 0.593065 4.49333 0.19751 4 0.19751H0.888889C0.395556 0.19751 0 0.593065 0 1.0864C0 9.43307 6.76444 16.1975 15.1111 16.1975C15.6044 16.1975 16 15.802 16 15.3086V12.1975C16 11.7042 15.6044 11.3086 15.1111 11.3086Z" fill="white"/>
</svg>
