<svg width="146" height="25" viewBox="0 0 146 25" fill="none" xmlns="http://www.w3.org/2000/svg">
<path d="M17.6096 23.3025C15.6909 22.1009 14.2779 17.9537 14.2779 13.0269C14.2779 12.8461 14.2787 12.6675 14.2833 12.4898L14.2856 12.4921C8.94979 11.6536 5.09405 9.35576 4.99564 6.63904L4.97962 6.67032C3.67352 8.29303 2.92815 10.169 2.92815 12.1678C2.92815 18.0499 9.38465 22.8692 17.5745 23.2956L17.6096 23.3025ZM0.46167 12.5974C0.46167 6.01575 8.65226 0.679199 18.7562 0.679199C28.8602 0.679199 37.0508 6.01575 37.0508 12.5974C37.0508 19.179 28.8602 24.5155 18.7562 24.5155C8.65226 24.5155 0.46167 19.179 0.46167 12.5974ZM18.7562 2.3988C20.707 2.3988 22.3655 5.35736 22.9804 9.48622L22.9827 9.48012C26.7774 8.88962 29.4347 7.52631 29.4347 5.94098C29.4347 3.81247 24.6535 2.08982 18.7562 2.08982C12.8589 2.08982 8.07779 3.81323 8.07779 5.94098C8.07779 7.52631 10.7342 8.88886 14.5297 9.48012L14.532 9.48622C15.1469 5.35812 16.8062 2.3988 18.7562 2.3988ZM19.9372 23.2956C28.127 22.8692 34.5843 18.0499 34.5843 12.1678C34.5843 10.169 33.8382 8.29303 32.5328 6.67032L32.5168 6.63904C32.4184 9.35576 28.5634 11.6536 23.2269 12.4921L23.2292 12.4898C23.233 12.6675 23.2345 12.8461 23.2345 13.0269C23.2345 17.9537 21.8201 22.1009 19.9029 23.3025L19.9372 23.2956ZM18.7562 9.79291C19.6305 9.79291 20.4796 9.75553 21.2921 9.68381L21.2914 9.68458C20.887 7.03804 19.9044 5.17044 18.7562 5.17044C17.608 5.17044 16.6262 7.03804 16.2211 9.68458L16.2203 9.68381C17.0328 9.75553 17.8819 9.79291 18.7562 9.79291ZM18.7562 19.5932C20.2248 19.5932 21.4226 16.537 21.4867 12.7042L21.4943 12.7065C20.6093 12.7881 19.6938 12.8316 18.7562 12.8316C17.8186 12.8316 16.9031 12.7889 16.0181 12.7065L16.0265 12.7042C16.0899 16.5378 17.2876 19.5932 18.7562 19.5932Z" fill="white"/>
<path d="M93.8127 12.5974C93.8127 7.56676 97.8913 3.48901 102.921 3.48901C107.953 3.48901 112.031 7.56752 112.031 12.5974C112.031 17.6288 107.952 21.7057 102.921 21.7057C97.8913 21.7057 93.8127 17.628 93.8127 12.5974ZM102.921 18.3657C105.731 18.3657 108.008 15.7825 108.008 12.5966C108.008 9.41147 105.731 6.8275 102.921 6.8275C100.113 6.8275 97.8363 9.41071 97.8363 12.5966C97.8363 15.7825 100.114 18.3657 102.921 18.3657Z" fill="white"/>
<path d="M122.367 7.28381V21.2923H118.529V7.28381H118.542H113.175V4.11621H127.721V7.28305H122.381H122.367V7.28381Z" fill="white"/>
<path d="M132.363 17.4282L132.36 17.432L130.887 21.2931H126.405L133.491 4.11694H135.88H138.268L145.354 21.2931H140.871L139.399 17.432L139.395 17.4282H135.88H132.363ZM135.88 14.5291H138.295L138.293 14.5299L135.896 8.24352H135.863L133.464 14.5299L133.463 14.5291H135.88Z" fill="white"/>
<path d="M51.6201 7.28381V21.2923H47.7819V7.28381H47.7948H42.427V4.11621H56.9734V7.28305H51.633H51.6201V7.28381Z" fill="white"/>
<path d="M57.9561 12.5974C57.9561 7.56676 62.0346 3.48901 67.066 3.48901C72.0966 3.48901 76.1751 7.56752 76.1751 12.5974C76.1751 17.6288 72.0966 21.7057 67.066 21.7057C62.0346 21.7057 57.9561 17.628 57.9561 12.5974ZM67.066 18.3657C69.8742 18.3657 72.1523 15.7825 72.1523 12.5966C72.1523 9.41147 69.875 6.8275 67.066 6.8275C64.2569 6.8275 61.9796 9.41071 61.9796 12.5966C61.9796 15.7825 64.2569 18.3657 67.066 18.3657Z" fill="white"/>
<path d="M84.9933 21.2923H86.9395V14.8511V14.7702L93.6348 4.11621H89.1534L84.9933 11.3356L80.8339 4.11621H76.3511L83.0471 14.7702V14.8503V21.2916H84.9933V21.2923Z" fill="white"/>
</svg>
