<svg width="142" height="26" viewBox="0 0 142 26" fill="none" xmlns="http://www.w3.org/2000/svg">
<path fill-rule="evenodd" clip-rule="evenodd" d="M135.872 11.9179H125.528C125.679 10.6344 126.585 9.35088 128.246 9.35088C129.605 9.35088 140.477 9.35088 140.477 9.35088V6.85938H127.718C122.659 6.85938 120.545 10.7099 120.545 14.4094C120.545 14.4094 134.286 14.4094 134.815 14.4094C135.268 14.4094 136.476 14.4849 136.476 15.6929C136.476 16.9009 135.494 16.9764 133.758 17.0519H118.884V6.85938H114.505V17.0519H106.124C103.633 17.0519 103.331 15.1644 103.331 14.1829C103.331 13.1259 103.331 6.85938 103.331 6.85938H95.3279L88.8349 11.1629L82.9459 6.85938H65.8828C60.8243 6.85938 57.7288 10.4079 57.2758 13.5034H60.8243C59.3898 14.4849 58.4083 15.7684 57.8798 17.0519H47.9137C45.4222 17.0519 45.1202 15.1644 45.1202 14.1829C45.1202 13.1259 45.1202 6.85938 45.1202 6.85938H40.7412V13.8054C40.7412 18.5619 44.0632 19.5434 45.7242 19.5434C48.0647 19.5434 80.6809 19.5434 80.6809 19.5434L87.2494 15.1644L93.2139 19.5434H100.084L90.8734 12.7484L98.4234 7.68988V14.4094C98.4234 18.7129 102.651 19.5434 103.784 19.5434H135.721C137.306 19.5434 141.685 19.3169 141.685 15.8439C141.685 12.3709 138.514 11.9179 135.872 11.9179ZM80.0769 16.9764H63.5423C63.6933 15.6929 65.1278 14.4094 66.7133 14.4094H76.4529V11.9179H63.2403C63.3913 10.6344 64.8258 9.35088 66.4113 9.35088C67.7703 9.35088 77.5099 9.35088 77.5099 9.35088V7.91638L85.2109 13.6544L80.0769 16.9764Z" fill="white"/>
<path fill-rule="evenodd" clip-rule="evenodd" d="M17.8646 25.055C23.6026 25.055 28.7366 23.0165 31.8321 19.921H28.9631C26.2451 22.186 22.3191 23.6205 17.8646 23.6205C9.55955 23.6205 3.06652 18.6375 3.06652 12.5219C3.06652 5.50041 9.55955 1.4234 17.8646 1.4234C18.3931 1.4234 18.8461 1.6499 18.4686 2.1029C16.7321 4.21691 11.8246 10.8609 10.9186 12.2954C9.18205 15.1645 9.18204 18.713 13.5611 18.9395H31.8321C32.7381 18.9395 32.9646 18.4865 33.3421 18.0335C34.5501 16.3725 35.1541 14.4849 35.1541 12.4464C35.1541 7.16142 31.4546 3.2354 26.0186 1.3479L25.1881 2.6314C29.7181 4.29241 32.7381 7.68992 32.7381 12.5219C32.7381 13.3524 32.5871 14.1829 32.3606 14.938C32.1341 15.6175 31.7566 16.2215 31.0016 16.2215H16.5056C14.6181 16.2215 15.3731 14.3339 16.0526 13.3524C17.0341 11.5404 22.5456 4.06591 23.8291 2.7069C24.1311 2.1784 25.1126 1.1214 23.8291 0.743895C21.9416 0.366393 19.9786 0.139893 17.8646 0.139893C8.27604 0.139893 0.499512 5.04741 0.499512 12.5974C0.499512 20.223 8.27604 25.055 17.8646 25.055Z" fill="white"/>
</svg>
